<svg xmlns="http://www.w3.org/2000/svg" width="8" height="16" viewBox="0 0 8 16"><g><g><path fill="#fff" d="M3.267.365c.087-.053.182-.099.286-.137.095-.038.202-.072.322-.103L4.53 0h.43l3.028.229H8l-.31 2.7h-.012l-1.67-.172h-.047l-.167.022-.06.023-.19.092a.155.155 0 0 0-.096.057l-.143.149a.592.592 0 0 0-.083.137.84.84 0 0 0-.06.149c-.016.053-.028.11-.035.171-.009.053-.012.11-.012.172l.023 1.692 2.456.024-.357 2.676-2.122.08v7.788l-.012.011H1.788V8.131H0V5.444h1.717V5.42l.012-.034.06-2.87.023-.16v-.08l.024-.08a.613.613 0 0 1 .048-.173.519.519 0 0 1 .071-.148c.032-.114.076-.217.131-.309.048-.099.108-.194.179-.285.056-.085.123-.164.203-.24.071-.085.147-.161.226-.23V.8z"/></g></g></svg>