<svg xmlns="http://www.w3.org/2000/svg" width="16" height="16" viewBox="0 0 16 16"><g><g><path fill="#f2f2f2" d="M16 3.091v9.817a3.095 3.095 0 0 1-3.092 3.091H3.092A3.095 3.095 0 0 1 0 12.908V3.09A3.095 3.095 0 0 1 3.092 0h9.816A3.095 3.095 0 0 1 16 3.091zm-4.564-1.24l.01 2.712 2.702-.009V1.842l-.353.002zM5.184 8A2.82 2.82 0 0 0 8 10.815 2.82 2.82 0 0 0 10.816 8c0-.614-.2-1.18-.533-1.643A2.814 2.814 0 0 0 8 5.183c-.94 0-1.771.465-2.284 1.174A2.802 2.802 0 0 0 5.184 8zm9.257-1.643h-2.39c.207.508.324 1.062.324 1.643A4.38 4.38 0 0 1 8 12.374 4.38 4.38 0 0 1 3.625 8c0-.581.116-1.135.322-1.643H1.56v6.55c0 .846.687 1.534 1.533 1.534h9.816c.845 0 1.533-.688 1.533-1.533z"/></g></g></svg>