<svg xmlns="http://www.w3.org/2000/svg" width="154" height="33" viewBox="0 0 154 33"><defs><mask id="gm6lb" width="2" height="2" x="-1" y="-1"><path fill="#fff" d="M0 0h153v32H0z"/><path d="M81.608 15.565c-1.3 0-2.234.424-3.183.857v9.798c.91.088 1.429.088 2.293.088 3.116 0 3.542-1.426 3.542-3.415v-4.68c0-1.469-.487-2.648-2.652-2.648zm-20.69-.535c-2.162 0-2.655 1.184-2.655 2.652v.824h5.307v-.824c0-1.468-.493-2.652-2.652-2.652-2.16 0 0 0 0 0zm-40.08 10.2c0 1.16.547 1.762 1.758 1.762 1.3 0 2.067-.422 3.015-.857v-2.323h-2.84c-1.344 0-1.934.249-1.934 1.417 0 1.17 0 0 0 0zm80.897-9.665c-2.165 0-2.915 1.18-2.915 2.647v5.362c0 1.473.75 2.655 2.915 2.655 2.159 0 2.915-1.182 2.915-2.655v-5.362c0-1.468-.756-2.647-2.915-2.647zM10.225 31.24H3.863V15.856H.681v-5.303h3.181V7.371c0-4.325 1.796-6.898 6.896-6.898h4.248v5.303h-2.654c-1.986 0-2.118.741-2.118 2.123l-.008 2.654h4.81l-.563 5.303h-4.247zm21.753.04h-5.304l-.229-1.34a12.176 12.176 0 0 1-6.01 1.557c-3.891 0-5.962-2.595-5.962-6.185 0-4.234 2.416-5.745 6.739-5.745h4.4v-.915c0-2.162-.249-2.796-3.577-2.796h-5.442l.532-5.303h5.948c7.304 0 8.905 2.305 8.905 8.142zm18.038-15.036c-3.3-.564-4.248-.69-5.836-.69-2.854 0-3.715.63-3.715 3.048v4.578c0 2.42.861 3.05 3.715 3.05 1.588 0 2.535-.126 5.836-.693v5.17c-2.891.649-4.775.819-6.366.819-6.834 0-9.55-3.589-9.55-8.774v-3.714c0-5.188 2.716-8.783 9.55-8.783 1.591 0 3.475.172 6.366.82zm19.918 6.508h-11.67v.428c0 2.42.862 3.05 3.714 3.05 2.565 0 4.13-.126 7.423-.693v5.17c-3.176.649-4.831.819-7.95.819-6.835 0-9.552-3.589-9.552-8.774v-4.246c0-4.535 2.017-8.251 9.019-8.251 7.003 0 9.016 3.672 9.016 8.25zm20.69.097c0 5.012-1.434 8.667-10.121 8.667-3.135 0-4.978-.276-8.44-.809V2.065l6.362-1.06v10.019c1.375-.51 3.155-.77 4.775-.77 6.365 0 7.424 2.85 7.424 7.428zm20.396.11c0 4.323-1.787 8.516-9.264 8.516-7.48 0-9.3-4.193-9.3-8.515v-4.174c0-4.324 1.82-8.517 9.3-8.517 7.477 0 9.264 4.193 9.264 8.517zm20.38 0c0 4.323-1.789 8.516-9.262 8.516-7.482 0-9.303-4.193-9.303-8.515v-4.174c0-4.324 1.821-8.517 9.303-8.517 7.473 0 9.262 4.193 9.262 8.517zm20.919 8.28h-6.899l-5.832-9.722v9.723h-6.364V2.065l6.364-1.06v18.782l5.832-9.234h6.899L145.95 20.63zm-30.204-15.674c-2.161 0-2.911 1.18-2.911 2.647v5.362c0 1.473.75 2.655 2.911 2.655 2.159 0 2.923-1.182 2.923-2.655v-5.362c0-1.468-.764-2.647-2.923-2.647z"/></mask><filter id="gm6la" width="175.5" height="54.9" x="-11" y="-11" filterUnits="userSpaceOnUse"><feOffset dx=".5" dy=".9" in="SourceGraphic" result="FeOffset1023Out"/><feGaussianBlur in="FeOffset1023Out" result="FeGaussianBlur1024Out" stdDeviation="0.4 0.4"/></filter><linearGradient id="gm6lc" x1="76.32" x2="76.68" y1="31.53" y2=".47" gradientUnits="userSpaceOnUse"><stop offset="0" stop-opacity=".07"/><stop offset="1" stop-color="#fff" stop-opacity=".07"/></linearGradient></defs><g><g><g filter="url(#gm6la)"><path fill="none" d="M81.608 15.565c-1.3 0-2.234.424-3.183.857v9.798c.91.088 1.429.088 2.293.088 3.116 0 3.542-1.426 3.542-3.415v-4.68c0-1.469-.487-2.648-2.652-2.648zm-20.69-.535c-2.162 0-2.655 1.184-2.655 2.652v.824h5.307v-.824c0-1.468-.493-2.652-2.652-2.652-2.16 0 0 0 0 0zm-40.08 10.2c0 1.16.547 1.762 1.758 1.762 1.3 0 2.067-.422 3.015-.857v-2.323h-2.84c-1.344 0-1.934.249-1.934 1.417 0 1.17 0 0 0 0zm80.897-9.665c-2.165 0-2.915 1.18-2.915 2.647v5.362c0 1.473.75 2.655 2.915 2.655 2.159 0 2.915-1.182 2.915-2.655v-5.362c0-1.468-.756-2.647-2.915-2.647zM10.225 31.24H3.863V15.856H.681v-5.303h3.181V7.371c0-4.325 1.796-6.898 6.896-6.898h4.248v5.303h-2.654c-1.986 0-2.118.741-2.118 2.123l-.008 2.654h4.81l-.563 5.303h-4.247zm21.753.04h-5.304l-.229-1.34a12.176 12.176 0 0 1-6.01 1.557c-3.891 0-5.962-2.595-5.962-6.185 0-4.234 2.416-5.745 6.739-5.745h4.4v-.915c0-2.162-.249-2.796-3.577-2.796h-5.442l.532-5.303h5.948c7.304 0 8.905 2.305 8.905 8.142zm18.038-15.036c-3.3-.564-4.248-.69-5.836-.69-2.854 0-3.715.63-3.715 3.048v4.578c0 2.42.861 3.05 3.715 3.05 1.588 0 2.535-.126 5.836-.693v5.17c-2.891.649-4.775.819-6.366.819-6.834 0-9.55-3.589-9.55-8.774v-3.714c0-5.188 2.716-8.783 9.55-8.783 1.591 0 3.475.172 6.366.82zm19.918 6.508h-11.67v.428c0 2.42.862 3.05 3.714 3.05 2.565 0 4.13-.126 7.423-.693v5.17c-3.176.649-4.831.819-7.95.819-6.835 0-9.552-3.589-9.552-8.774v-4.246c0-4.535 2.017-8.251 9.019-8.251 7.003 0 9.016 3.672 9.016 8.25zm20.69.097c0 5.012-1.434 8.667-10.121 8.667-3.135 0-4.978-.276-8.44-.809V2.065l6.362-1.06v10.019c1.375-.51 3.155-.77 4.775-.77 6.365 0 7.424 2.85 7.424 7.428zm20.396.11c0 4.323-1.787 8.516-9.264 8.516-7.48 0-9.3-4.193-9.3-8.515v-4.174c0-4.324 1.82-8.517 9.3-8.517 7.477 0 9.264 4.193 9.264 8.517zm20.38 0c0 4.323-1.789 8.516-9.262 8.516-7.482 0-9.303-4.193-9.303-8.515v-4.174c0-4.324 1.821-8.517 9.303-8.517 7.473 0 9.262 4.193 9.262 8.517zm20.919 8.28h-6.899l-5.832-9.722v9.723h-6.364V2.065l6.364-1.06v18.782l5.832-9.234h6.899L145.95 20.63zm-30.204-15.674c-2.161 0-2.911 1.18-2.911 2.647v5.362c0 1.473.75 2.655 2.911 2.655 2.159 0 2.923-1.182 2.923-2.655v-5.362c0-1.468-.764-2.647-2.923-2.647z" mask="url(&quot;#gm6lb&quot;)"/><path fill-opacity=".3" d="M81.608 15.565c-1.3 0-2.234.424-3.183.857v9.798c.91.088 1.429.088 2.293.088 3.116 0 3.542-1.426 3.542-3.415v-4.68c0-1.469-.487-2.648-2.652-2.648zm-20.69-.535c-2.162 0-2.655 1.184-2.655 2.652v.824h5.307v-.824c0-1.468-.493-2.652-2.652-2.652-2.16 0 0 0 0 0zm-40.08 10.2c0 1.16.547 1.762 1.758 1.762 1.3 0 2.067-.422 3.015-.857v-2.323h-2.84c-1.344 0-1.934.249-1.934 1.417 0 1.17 0 0 0 0zm80.897-9.665c-2.165 0-2.915 1.18-2.915 2.647v5.362c0 1.473.75 2.655 2.915 2.655 2.159 0 2.915-1.182 2.915-2.655v-5.362c0-1.468-.756-2.647-2.915-2.647zM10.225 31.24H3.863V15.856H.681v-5.303h3.181V7.371c0-4.325 1.796-6.898 6.896-6.898h4.248v5.303h-2.654c-1.986 0-2.118.741-2.118 2.123l-.008 2.654h4.81l-.563 5.303h-4.247zm21.753.04h-5.304l-.229-1.34a12.176 12.176 0 0 1-6.01 1.557c-3.891 0-5.962-2.595-5.962-6.185 0-4.234 2.416-5.745 6.739-5.745h4.4v-.915c0-2.162-.249-2.796-3.577-2.796h-5.442l.532-5.303h5.948c7.304 0 8.905 2.305 8.905 8.142zm18.038-15.036c-3.3-.564-4.248-.69-5.836-.69-2.854 0-3.715.63-3.715 3.048v4.578c0 2.42.861 3.05 3.715 3.05 1.588 0 2.535-.126 5.836-.693v5.17c-2.891.649-4.775.819-6.366.819-6.834 0-9.55-3.589-9.55-8.774v-3.714c0-5.188 2.716-8.783 9.55-8.783 1.591 0 3.475.172 6.366.82zm19.918 6.508h-11.67v.428c0 2.42.862 3.05 3.714 3.05 2.565 0 4.13-.126 7.423-.693v5.17c-3.176.649-4.831.819-7.95.819-6.835 0-9.552-3.589-9.552-8.774v-4.246c0-4.535 2.017-8.251 9.019-8.251 7.003 0 9.016 3.672 9.016 8.25zm20.69.097c0 5.012-1.434 8.667-10.121 8.667-3.135 0-4.978-.276-8.44-.809V2.065l6.362-1.06v10.019c1.375-.51 3.155-.77 4.775-.77 6.365 0 7.424 2.85 7.424 7.428zm20.396.11c0 4.323-1.787 8.516-9.264 8.516-7.48 0-9.3-4.193-9.3-8.515v-4.174c0-4.324 1.82-8.517 9.3-8.517 7.477 0 9.264 4.193 9.264 8.517zm20.38 0c0 4.323-1.789 8.516-9.262 8.516-7.482 0-9.303-4.193-9.303-8.515v-4.174c0-4.324 1.821-8.517 9.303-8.517 7.473 0 9.262 4.193 9.262 8.517zm20.919 8.28h-6.899l-5.832-9.722v9.723h-6.364V2.065l6.364-1.06v18.782l5.832-9.234h6.899L145.95 20.63zm-30.204-15.674c-2.161 0-2.911 1.18-2.911 2.647v5.362c0 1.473.75 2.655 2.911 2.655 2.159 0 2.923-1.182 2.923-2.655v-5.362c0-1.468-.764-2.647-2.923-2.647z"/></g><path fill="#fff" d="M81.608 15.565c-1.3 0-2.234.424-3.183.857v9.798c.91.088 1.429.088 2.293.088 3.116 0 3.542-1.426 3.542-3.415v-4.68c0-1.469-.487-2.648-2.652-2.648zm-20.69-.535c-2.162 0-2.655 1.184-2.655 2.652v.824h5.307v-.824c0-1.468-.493-2.652-2.652-2.652-2.16 0 0 0 0 0zm-40.08 10.2c0 1.16.547 1.762 1.758 1.762 1.3 0 2.067-.422 3.015-.857v-2.323h-2.84c-1.344 0-1.934.249-1.934 1.417 0 1.17 0 0 0 0zm80.897-9.665c-2.165 0-2.915 1.18-2.915 2.647v5.362c0 1.473.75 2.655 2.915 2.655 2.159 0 2.915-1.182 2.915-2.655v-5.362c0-1.468-.756-2.647-2.915-2.647zM10.225 31.24H3.863V15.856H.681v-5.303h3.181V7.371c0-4.325 1.796-6.898 6.896-6.898h4.248v5.303h-2.654c-1.986 0-2.118.741-2.118 2.123l-.008 2.654h4.81l-.563 5.303h-4.247zm21.753.04h-5.304l-.229-1.34a12.176 12.176 0 0 1-6.01 1.557c-3.891 0-5.962-2.595-5.962-6.185 0-4.234 2.416-5.745 6.739-5.745h4.4v-.915c0-2.162-.249-2.796-3.577-2.796h-5.442l.532-5.303h5.948c7.304 0 8.905 2.305 8.905 8.142zm18.038-15.036c-3.3-.564-4.248-.69-5.836-.69-2.854 0-3.715.63-3.715 3.048v4.578c0 2.42.861 3.05 3.715 3.05 1.588 0 2.535-.126 5.836-.693v5.17c-2.891.649-4.775.819-6.366.819-6.834 0-9.55-3.589-9.55-8.774v-3.714c0-5.188 2.716-8.783 9.55-8.783 1.591 0 3.475.172 6.366.82zm19.918 6.508h-11.67v.428c0 2.42.862 3.05 3.714 3.05 2.565 0 4.13-.126 7.423-.693v5.17c-3.176.649-4.831.819-7.95.819-6.835 0-9.552-3.589-9.552-8.774v-4.246c0-4.535 2.017-8.251 9.019-8.251 7.003 0 9.016 3.672 9.016 8.25zm20.69.097c0 5.012-1.434 8.667-10.121 8.667-3.135 0-4.978-.276-8.44-.809V2.065l6.362-1.06v10.019c1.375-.51 3.155-.77 4.775-.77 6.365 0 7.424 2.85 7.424 7.428zm20.396.11c0 4.323-1.787 8.516-9.264 8.516-7.48 0-9.3-4.193-9.3-8.515v-4.174c0-4.324 1.82-8.517 9.3-8.517 7.477 0 9.264 4.193 9.264 8.517zm20.38 0c0 4.323-1.789 8.516-9.262 8.516-7.482 0-9.303-4.193-9.303-8.515v-4.174c0-4.324 1.821-8.517 9.303-8.517 7.473 0 9.262 4.193 9.262 8.517zm20.919 8.28h-6.899l-5.832-9.722v9.723h-6.364V2.065l6.364-1.06v18.782l5.832-9.234h6.899L145.95 20.63zm-30.204-15.674c-2.161 0-2.911 1.18-2.911 2.647v5.362c0 1.473.75 2.655 2.911 2.655 2.159 0 2.923-1.182 2.923-2.655v-5.362c0-1.468-.764-2.647-2.923-2.647z"/><path fill="url(#gm6lc)" d="M81.608 15.565c-1.3 0-2.234.424-3.183.857v9.798c.91.088 1.429.088 2.293.088 3.116 0 3.542-1.426 3.542-3.415v-4.68c0-1.469-.487-2.648-2.652-2.648zm-20.69-.535c-2.162 0-2.655 1.184-2.655 2.652v.824h5.307v-.824c0-1.468-.493-2.652-2.652-2.652-2.16 0 0 0 0 0zm-40.08 10.2c0 1.16.547 1.762 1.758 1.762 1.3 0 2.067-.422 3.015-.857v-2.323h-2.84c-1.344 0-1.934.249-1.934 1.417 0 1.17 0 0 0 0zm80.897-9.665c-2.165 0-2.915 1.18-2.915 2.647v5.362c0 1.473.75 2.655 2.915 2.655 2.159 0 2.915-1.182 2.915-2.655v-5.362c0-1.468-.756-2.647-2.915-2.647zM10.225 31.24H3.863V15.856H.681v-5.303h3.181V7.371c0-4.325 1.796-6.898 6.896-6.898h4.248v5.303h-2.654c-1.986 0-2.118.741-2.118 2.123l-.008 2.654h4.81l-.563 5.303h-4.247zm21.753.04h-5.304l-.229-1.34a12.176 12.176 0 0 1-6.01 1.557c-3.891 0-5.962-2.595-5.962-6.185 0-4.234 2.416-5.745 6.739-5.745h4.4v-.915c0-2.162-.249-2.796-3.577-2.796h-5.442l.532-5.303h5.948c7.304 0 8.905 2.305 8.905 8.142zm18.038-15.036c-3.3-.564-4.248-.69-5.836-.69-2.854 0-3.715.63-3.715 3.048v4.578c0 2.42.861 3.05 3.715 3.05 1.588 0 2.535-.126 5.836-.693v5.17c-2.891.649-4.775.819-6.366.819-6.834 0-9.55-3.589-9.55-8.774v-3.714c0-5.188 2.716-8.783 9.55-8.783 1.591 0 3.475.172 6.366.82zm19.918 6.508h-11.67v.428c0 2.42.862 3.05 3.714 3.05 2.565 0 4.13-.126 7.423-.693v5.17c-3.176.649-4.831.819-7.95.819-6.835 0-9.552-3.589-9.552-8.774v-4.246c0-4.535 2.017-8.251 9.019-8.251 7.003 0 9.016 3.672 9.016 8.25zm20.69.097c0 5.012-1.434 8.667-10.121 8.667-3.135 0-4.978-.276-8.44-.809V2.065l6.362-1.06v10.019c1.375-.51 3.155-.77 4.775-.77 6.365 0 7.424 2.85 7.424 7.428zm20.396.11c0 4.323-1.787 8.516-9.264 8.516-7.48 0-9.3-4.193-9.3-8.515v-4.174c0-4.324 1.82-8.517 9.3-8.517 7.477 0 9.264 4.193 9.264 8.517zm20.38 0c0 4.323-1.789 8.516-9.262 8.516-7.482 0-9.303-4.193-9.303-8.515v-4.174c0-4.324 1.821-8.517 9.303-8.517 7.473 0 9.262 4.193 9.262 8.517zm20.919 8.28h-6.899l-5.832-9.722v9.723h-6.364V2.065l6.364-1.06v18.782l5.832-9.234h6.899L145.95 20.63zm-30.204-15.674c-2.161 0-2.911 1.18-2.911 2.647v5.362c0 1.473.75 2.655 2.911 2.655 2.159 0 2.923-1.182 2.923-2.655v-5.362c0-1.468-.764-2.647-2.923-2.647z"/></g></g></svg>