<svg xmlns="http://www.w3.org/2000/svg" width="90" height="90" viewBox="0 0 90 90"><g><g><path fill="#fff" d="M45 .199c24.742 0 44.8 20.058 44.8 44.8 0 24.742-20.058 44.8-44.8 44.8-24.743 0-44.8-20.058-44.8-44.8C.2 20.257 20.257.199 45 .199zm-40.6 44.8c0 22.423 18.177 40.6 40.6 40.6 22.422 0 40.6-18.177 40.6-40.6 0-22.423-18.178-40.6-40.6-40.6C22.576 4.4 4.4 22.576 4.4 45zm57.46.482c0 1.059-.57 1.985-1.42 2.488L39.278 60.474l-.023.013-.011.007a2.89 2.89 0 0 1-4.36-2.488v-25.05a2.89 2.89 0 0 1 4.36-2.488l.011.006.023.014L60.44 42.992a2.888 2.888 0 0 1 1.42 2.489z"/></g></g></svg>