<svg xmlns="http://www.w3.org/2000/svg" width="13" height="13" viewBox="0 0 13 13"><defs><clipPath id="n247a"><path fill="#fff" d="M6.583-.18L8.37 4.781h4.798L9.253 7.696l1.4 5.117-4.07-3.068-4.069 3.068 1.4-5.117-3.915-2.914h4.798z"/></clipPath></defs><g><g><path fill="#787878" d="M6.583-.18L8.37 4.781h4.798L9.253 7.696l1.4 5.117-4.07-3.068-4.069 3.068 1.4-5.117-3.915-2.914h4.798z"/><path fill="none" stroke="#787878" stroke-linecap="round" stroke-linejoin="round" stroke-miterlimit="20" stroke-width="2" d="M6.583-.18v0L8.37 4.781v0h4.798v0L9.253 7.696v0l1.4 5.117v0l-4.07-3.068v0l-4.069 3.068v0l1.4-5.117v0L-.002 4.782v0h4.798v0z" clip-path="url(&quot;#n247a&quot;)"/></g></g></svg>