<?xml version="1.0" encoding="utf-8"?><svg xmlns="http://www.w3.org/2000/svg" xmlns:xlink="http://www.w3.org/1999/xlink"><symbol viewBox="0 0 154 33" id="Logo_Facebook" xmlns="http://www.w3.org/2000/svg"><defs><filter id="aa" width="175.5" height="54.9" x="-11" y="-11" filterUnits="userSpaceOnUse"><feOffset dx=".5" dy=".9" in="SourceGraphic" result="FeOffset1023Out"/><feGaussianBlur in="FeOffset1023Out" result="FeGaussianBlur1024Out" stdDeviation="0.4 0.4"/></filter><mask id="ab" width="2" height="2" x="-1" y="-1"><path d="M0 0h153v32H0z"/><path d="M81.608 15.565c-1.3 0-2.234.424-3.183.857v9.798c.91.088 1.429.088 2.293.088 3.116 0 3.542-1.426 3.542-3.415v-4.68c0-1.469-.487-2.648-2.652-2.648zm-20.69-.535c-2.162 0-2.655 1.184-2.655 2.652v.824h5.307v-.824c0-1.468-.493-2.652-2.652-2.652-2.16 0 0 0 0 0zm-40.08 10.2c0 1.16.547 1.762 1.758 1.762 1.3 0 2.067-.422 3.015-.857v-2.323h-2.84c-1.344 0-1.934.249-1.934 1.417 0 1.17 0 0 0 0zm80.897-9.665c-2.165 0-2.915 1.18-2.915 2.647v5.362c0 1.473.75 2.655 2.915 2.655 2.159 0 2.915-1.182 2.915-2.655v-5.362c0-1.468-.756-2.647-2.915-2.647zM10.225 31.24H3.863V15.856H.681v-5.303h3.181V7.371c0-4.325 1.796-6.898 6.896-6.898h4.248v5.303h-2.654c-1.986 0-2.118.741-2.118 2.123l-.008 2.654h4.81l-.563 5.303h-4.247zm21.753.04h-5.304l-.229-1.34a12.176 12.176 0 01-6.01 1.557c-3.891 0-5.962-2.595-5.962-6.185 0-4.234 2.416-5.745 6.739-5.745h4.4v-.915c0-2.162-.249-2.796-3.577-2.796h-5.442l.532-5.303h5.948c7.304 0 8.905 2.305 8.905 8.142zm18.038-15.036c-3.3-.564-4.248-.69-5.836-.69-2.854 0-3.715.63-3.715 3.048v4.578c0 2.42.861 3.05 3.715 3.05 1.588 0 2.535-.126 5.836-.693v5.17c-2.891.649-4.775.819-6.366.819-6.834 0-9.55-3.589-9.55-8.774v-3.714c0-5.188 2.716-8.783 9.55-8.783 1.591 0 3.475.172 6.366.82zm19.918 6.508h-11.67v.428c0 2.42.862 3.05 3.714 3.05 2.565 0 4.13-.126 7.423-.693v5.17c-3.176.649-4.831.819-7.95.819-6.835 0-9.552-3.589-9.552-8.774v-4.246c0-4.535 2.017-8.251 9.019-8.251 7.003 0 9.016 3.672 9.016 8.25zm20.69.097c0 5.012-1.434 8.667-10.121 8.667-3.135 0-4.978-.276-8.44-.809V2.065l6.362-1.06v10.019c1.375-.51 3.155-.77 4.775-.77 6.365 0 7.424 2.85 7.424 7.428zm20.396.11c0 4.323-1.787 8.516-9.264 8.516-7.48 0-9.3-4.193-9.3-8.515v-4.174c0-4.324 1.82-8.517 9.3-8.517 7.477 0 9.264 4.193 9.264 8.517zm20.38 0c0 4.323-1.789 8.516-9.262 8.516-7.482 0-9.303-4.193-9.303-8.515v-4.174c0-4.324 1.821-8.517 9.303-8.517 7.473 0 9.262 4.193 9.262 8.517zm20.919 8.28h-6.899l-5.832-9.722v9.723h-6.364V2.065l6.364-1.06v18.782l5.832-9.234h6.899L145.95 20.63zm-30.204-15.674c-2.161 0-2.911 1.18-2.911 2.647v5.362c0 1.473.75 2.655 2.911 2.655 2.159 0 2.923-1.182 2.923-2.655v-5.362c0-1.468-.764-2.647-2.923-2.647z"/></mask></defs><g filter="url(#aa)"><path d="M81.608 15.565c-1.3 0-2.234.424-3.183.857v9.798c.91.088 1.429.088 2.293.088 3.116 0 3.542-1.426 3.542-3.415v-4.68c0-1.469-.487-2.648-2.652-2.648zm-20.69-.535c-2.162 0-2.655 1.184-2.655 2.652v.824h5.307v-.824c0-1.468-.493-2.652-2.652-2.652-2.16 0 0 0 0 0zm-40.08 10.2c0 1.16.547 1.762 1.758 1.762 1.3 0 2.067-.422 3.015-.857v-2.323h-2.84c-1.344 0-1.934.249-1.934 1.417 0 1.17 0 0 0 0zm80.897-9.665c-2.165 0-2.915 1.18-2.915 2.647v5.362c0 1.473.75 2.655 2.915 2.655 2.159 0 2.915-1.182 2.915-2.655v-5.362c0-1.468-.756-2.647-2.915-2.647zM10.225 31.24H3.863V15.856H.681v-5.303h3.181V7.371c0-4.325 1.796-6.898 6.896-6.898h4.248v5.303h-2.654c-1.986 0-2.118.741-2.118 2.123l-.008 2.654h4.81l-.563 5.303h-4.247zm21.753.04h-5.304l-.229-1.34a12.176 12.176 0 01-6.01 1.557c-3.891 0-5.962-2.595-5.962-6.185 0-4.234 2.416-5.745 6.739-5.745h4.4v-.915c0-2.162-.249-2.796-3.577-2.796h-5.442l.532-5.303h5.948c7.304 0 8.905 2.305 8.905 8.142zm18.038-15.036c-3.3-.564-4.248-.69-5.836-.69-2.854 0-3.715.63-3.715 3.048v4.578c0 2.42.861 3.05 3.715 3.05 1.588 0 2.535-.126 5.836-.693v5.17c-2.891.649-4.775.819-6.366.819-6.834 0-9.55-3.589-9.55-8.774v-3.714c0-5.188 2.716-8.783 9.55-8.783 1.591 0 3.475.172 6.366.82zm19.918 6.508h-11.67v.428c0 2.42.862 3.05 3.714 3.05 2.565 0 4.13-.126 7.423-.693v5.17c-3.176.649-4.831.819-7.95.819-6.835 0-9.552-3.589-9.552-8.774v-4.246c0-4.535 2.017-8.251 9.019-8.251 7.003 0 9.016 3.672 9.016 8.25zm20.69.097c0 5.012-1.434 8.667-10.121 8.667-3.135 0-4.978-.276-8.44-.809V2.065l6.362-1.06v10.019c1.375-.51 3.155-.77 4.775-.77 6.365 0 7.424 2.85 7.424 7.428zm20.396.11c0 4.323-1.787 8.516-9.264 8.516-7.48 0-9.3-4.193-9.3-8.515v-4.174c0-4.324 1.82-8.517 9.3-8.517 7.477 0 9.264 4.193 9.264 8.517zm20.38 0c0 4.323-1.789 8.516-9.262 8.516-7.482 0-9.303-4.193-9.303-8.515v-4.174c0-4.324 1.821-8.517 9.303-8.517 7.473 0 9.262 4.193 9.262 8.517zm20.919 8.28h-6.899l-5.832-9.722v9.723h-6.364V2.065l6.364-1.06v18.782l5.832-9.234h6.899L145.95 20.63zm-30.204-15.674c-2.161 0-2.911 1.18-2.911 2.647v5.362c0 1.473.75 2.655 2.911 2.655 2.159 0 2.923-1.182 2.923-2.655v-5.362c0-1.468-.764-2.647-2.923-2.647z" mask="url(#ab)"/><path fill-opacity=".3" d="M81.608 15.565c-1.3 0-2.234.424-3.183.857v9.798c.91.088 1.429.088 2.293.088 3.116 0 3.542-1.426 3.542-3.415v-4.68c0-1.469-.487-2.648-2.652-2.648zm-20.69-.535c-2.162 0-2.655 1.184-2.655 2.652v.824h5.307v-.824c0-1.468-.493-2.652-2.652-2.652-2.16 0 0 0 0 0zm-40.08 10.2c0 1.16.547 1.762 1.758 1.762 1.3 0 2.067-.422 3.015-.857v-2.323h-2.84c-1.344 0-1.934.249-1.934 1.417 0 1.17 0 0 0 0zm80.897-9.665c-2.165 0-2.915 1.18-2.915 2.647v5.362c0 1.473.75 2.655 2.915 2.655 2.159 0 2.915-1.182 2.915-2.655v-5.362c0-1.468-.756-2.647-2.915-2.647zM10.225 31.24H3.863V15.856H.681v-5.303h3.181V7.371c0-4.325 1.796-6.898 6.896-6.898h4.248v5.303h-2.654c-1.986 0-2.118.741-2.118 2.123l-.008 2.654h4.81l-.563 5.303h-4.247zm21.753.04h-5.304l-.229-1.34a12.176 12.176 0 01-6.01 1.557c-3.891 0-5.962-2.595-5.962-6.185 0-4.234 2.416-5.745 6.739-5.745h4.4v-.915c0-2.162-.249-2.796-3.577-2.796h-5.442l.532-5.303h5.948c7.304 0 8.905 2.305 8.905 8.142zm18.038-15.036c-3.3-.564-4.248-.69-5.836-.69-2.854 0-3.715.63-3.715 3.048v4.578c0 2.42.861 3.05 3.715 3.05 1.588 0 2.535-.126 5.836-.693v5.17c-2.891.649-4.775.819-6.366.819-6.834 0-9.55-3.589-9.55-8.774v-3.714c0-5.188 2.716-8.783 9.55-8.783 1.591 0 3.475.172 6.366.82zm19.918 6.508h-11.67v.428c0 2.42.862 3.05 3.714 3.05 2.565 0 4.13-.126 7.423-.693v5.17c-3.176.649-4.831.819-7.95.819-6.835 0-9.552-3.589-9.552-8.774v-4.246c0-4.535 2.017-8.251 9.019-8.251 7.003 0 9.016 3.672 9.016 8.25zm20.69.097c0 5.012-1.434 8.667-10.121 8.667-3.135 0-4.978-.276-8.44-.809V2.065l6.362-1.06v10.019c1.375-.51 3.155-.77 4.775-.77 6.365 0 7.424 2.85 7.424 7.428zm20.396.11c0 4.323-1.787 8.516-9.264 8.516-7.48 0-9.3-4.193-9.3-8.515v-4.174c0-4.324 1.82-8.517 9.3-8.517 7.477 0 9.264 4.193 9.264 8.517zm20.38 0c0 4.323-1.789 8.516-9.262 8.516-7.482 0-9.303-4.193-9.303-8.515v-4.174c0-4.324 1.821-8.517 9.303-8.517 7.473 0 9.262 4.193 9.262 8.517zm20.919 8.28h-6.899l-5.832-9.722v9.723h-6.364V2.065l6.364-1.06v18.782l5.832-9.234h6.899L145.95 20.63zm-30.204-15.674c-2.161 0-2.911 1.18-2.911 2.647v5.362c0 1.473.75 2.655 2.911 2.655 2.159 0 2.923-1.182 2.923-2.655v-5.362c0-1.468-.764-2.647-2.923-2.647z"/></g><path d="M81.608 15.565c-1.3 0-2.234.424-3.183.857v9.798c.91.088 1.429.088 2.293.088 3.116 0 3.542-1.426 3.542-3.415v-4.68c0-1.469-.487-2.648-2.652-2.648zm-20.69-.535c-2.162 0-2.655 1.184-2.655 2.652v.824h5.307v-.824c0-1.468-.493-2.652-2.652-2.652-2.16 0 0 0 0 0zm-40.08 10.2c0 1.16.547 1.762 1.758 1.762 1.3 0 2.067-.422 3.015-.857v-2.323h-2.84c-1.344 0-1.934.249-1.934 1.417 0 1.17 0 0 0 0zm80.897-9.665c-2.165 0-2.915 1.18-2.915 2.647v5.362c0 1.473.75 2.655 2.915 2.655 2.159 0 2.915-1.182 2.915-2.655v-5.362c0-1.468-.756-2.647-2.915-2.647zM10.225 31.24H3.863V15.856H.681v-5.303h3.181V7.371c0-4.325 1.796-6.898 6.896-6.898h4.248v5.303h-2.654c-1.986 0-2.118.741-2.118 2.123l-.008 2.654h4.81l-.563 5.303h-4.247zm21.753.04h-5.304l-.229-1.34a12.176 12.176 0 01-6.01 1.557c-3.891 0-5.962-2.595-5.962-6.185 0-4.234 2.416-5.745 6.739-5.745h4.4v-.915c0-2.162-.249-2.796-3.577-2.796h-5.442l.532-5.303h5.948c7.304 0 8.905 2.305 8.905 8.142zm18.038-15.036c-3.3-.564-4.248-.69-5.836-.69-2.854 0-3.715.63-3.715 3.048v4.578c0 2.42.861 3.05 3.715 3.05 1.588 0 2.535-.126 5.836-.693v5.17c-2.891.649-4.775.819-6.366.819-6.834 0-9.55-3.589-9.55-8.774v-3.714c0-5.188 2.716-8.783 9.55-8.783 1.591 0 3.475.172 6.366.82zm19.918 6.508h-11.67v.428c0 2.42.862 3.05 3.714 3.05 2.565 0 4.13-.126 7.423-.693v5.17c-3.176.649-4.831.819-7.95.819-6.835 0-9.552-3.589-9.552-8.774v-4.246c0-4.535 2.017-8.251 9.019-8.251 7.003 0 9.016 3.672 9.016 8.25zm20.69.097c0 5.012-1.434 8.667-10.121 8.667-3.135 0-4.978-.276-8.44-.809V2.065l6.362-1.06v10.019c1.375-.51 3.155-.77 4.775-.77 6.365 0 7.424 2.85 7.424 7.428zm20.396.11c0 4.323-1.787 8.516-9.264 8.516-7.48 0-9.3-4.193-9.3-8.515v-4.174c0-4.324 1.82-8.517 9.3-8.517 7.477 0 9.264 4.193 9.264 8.517zm20.38 0c0 4.323-1.789 8.516-9.262 8.516-7.482 0-9.303-4.193-9.303-8.515v-4.174c0-4.324 1.821-8.517 9.303-8.517 7.473 0 9.262 4.193 9.262 8.517zm20.919 8.28h-6.899l-5.832-9.722v9.723h-6.364V2.065l6.364-1.06v18.782l5.832-9.234h6.899L145.95 20.63zm-30.204-15.674c-2.161 0-2.911 1.18-2.911 2.647v5.362c0 1.473.75 2.655 2.911 2.655 2.159 0 2.923-1.182 2.923-2.655v-5.362c0-1.468-.764-2.647-2.923-2.647z"/><path d="M81.608 15.565c-1.3 0-2.234.424-3.183.857v9.798c.91.088 1.429.088 2.293.088 3.116 0 3.542-1.426 3.542-3.415v-4.68c0-1.469-.487-2.648-2.652-2.648zm-20.69-.535c-2.162 0-2.655 1.184-2.655 2.652v.824h5.307v-.824c0-1.468-.493-2.652-2.652-2.652-2.16 0 0 0 0 0zm-40.08 10.2c0 1.16.547 1.762 1.758 1.762 1.3 0 2.067-.422 3.015-.857v-2.323h-2.84c-1.344 0-1.934.249-1.934 1.417 0 1.17 0 0 0 0zm80.897-9.665c-2.165 0-2.915 1.18-2.915 2.647v5.362c0 1.473.75 2.655 2.915 2.655 2.159 0 2.915-1.182 2.915-2.655v-5.362c0-1.468-.756-2.647-2.915-2.647zM10.225 31.24H3.863V15.856H.681v-5.303h3.181V7.371c0-4.325 1.796-6.898 6.896-6.898h4.248v5.303h-2.654c-1.986 0-2.118.741-2.118 2.123l-.008 2.654h4.81l-.563 5.303h-4.247zm21.753.04h-5.304l-.229-1.34a12.176 12.176 0 01-6.01 1.557c-3.891 0-5.962-2.595-5.962-6.185 0-4.234 2.416-5.745 6.739-5.745h4.4v-.915c0-2.162-.249-2.796-3.577-2.796h-5.442l.532-5.303h5.948c7.304 0 8.905 2.305 8.905 8.142zm18.038-15.036c-3.3-.564-4.248-.69-5.836-.69-2.854 0-3.715.63-3.715 3.048v4.578c0 2.42.861 3.05 3.715 3.05 1.588 0 2.535-.126 5.836-.693v5.17c-2.891.649-4.775.819-6.366.819-6.834 0-9.55-3.589-9.55-8.774v-3.714c0-5.188 2.716-8.783 9.55-8.783 1.591 0 3.475.172 6.366.82zm19.918 6.508h-11.67v.428c0 2.42.862 3.05 3.714 3.05 2.565 0 4.13-.126 7.423-.693v5.17c-3.176.649-4.831.819-7.95.819-6.835 0-9.552-3.589-9.552-8.774v-4.246c0-4.535 2.017-8.251 9.019-8.251 7.003 0 9.016 3.672 9.016 8.25zm20.69.097c0 5.012-1.434 8.667-10.121 8.667-3.135 0-4.978-.276-8.44-.809V2.065l6.362-1.06v10.019c1.375-.51 3.155-.77 4.775-.77 6.365 0 7.424 2.85 7.424 7.428zm20.396.11c0 4.323-1.787 8.516-9.264 8.516-7.48 0-9.3-4.193-9.3-8.515v-4.174c0-4.324 1.82-8.517 9.3-8.517 7.477 0 9.264 4.193 9.264 8.517zm20.38 0c0 4.323-1.789 8.516-9.262 8.516-7.482 0-9.303-4.193-9.303-8.515v-4.174c0-4.324 1.821-8.517 9.303-8.517 7.473 0 9.262 4.193 9.262 8.517zm20.919 8.28h-6.899l-5.832-9.722v9.723h-6.364V2.065l6.364-1.06v18.782l5.832-9.234h6.899L145.95 20.63zm-30.204-15.674c-2.161 0-2.911 1.18-2.911 2.647v5.362c0 1.473.75 2.655 2.911 2.655 2.159 0 2.923-1.182 2.923-2.655v-5.362c0-1.468-.764-2.647-2.923-2.647z"/></symbol><symbol viewBox="0 0 90 90" id="Play_icon" xmlns="http://www.w3.org/2000/svg"><path d="M45 .199c24.742 0 44.8 20.058 44.8 44.8 0 24.742-20.058 44.8-44.8 44.8-24.743 0-44.8-20.058-44.8-44.8C.2 20.257 20.257.199 45 .199zm-40.6 44.8c0 22.423 18.177 40.6 40.6 40.6 22.422 0 40.6-18.177 40.6-40.6 0-22.423-18.178-40.6-40.6-40.6C22.576 4.4 4.4 22.576 4.4 45zm57.46.482c0 1.059-.57 1.985-1.42 2.488L39.278 60.474l-.023.013-.011.007a2.89 2.89 0 01-4.36-2.488v-25.05a2.89 2.89 0 014.36-2.488l.011.006.023.014L60.44 42.992a2.888 2.888 0 011.42 2.489z"/></symbol><symbol viewBox="0 0 8 16" id="fb" xmlns="http://www.w3.org/2000/svg"><path d="M3.267.365a1.61 1.61 0 01.286-.137c.095-.038.202-.072.322-.103L4.53 0h.43l3.028.229H8l-.31 2.7h-.012l-1.67-.172h-.047l-.167.022-.06.023-.19.092a.155.155 0 00-.096.057l-.143.149a.592.592 0 00-.083.137.84.84 0 00-.06.149.976.976 0 00-.035.171c-.009.053-.012.11-.012.172l.023 1.692 2.456.024-.357 2.676-2.122.08v7.788L5.103 16H1.788V8.131H0V5.444h1.717V5.42l.012-.034.06-2.87.023-.16v-.08l.024-.08a.613.613 0 01.048-.173.519.519 0 01.071-.148c.032-.114.076-.217.131-.309.048-.099.108-.194.179-.285.056-.085.123-.164.203-.24.071-.085.147-.161.226-.23V.8z"/></symbol><symbol viewBox="0 0 16 16" id="inst" xmlns="http://www.w3.org/2000/svg"><path d="M16 3.091v9.817a3.095 3.095 0 01-3.092 3.091H3.092A3.095 3.095 0 010 12.908V3.09A3.095 3.095 0 013.092 0h9.816A3.095 3.095 0 0116 3.091zm-4.564-1.24l.01 2.712 2.702-.009V1.842l-.353.002zM5.184 8A2.82 2.82 0 008 10.815 2.82 2.82 0 0010.816 8c0-.614-.2-1.18-.533-1.643A2.814 2.814 0 008 5.183c-.94 0-1.771.465-2.284 1.174A2.802 2.802 0 005.184 8zm9.257-1.643h-2.39c.207.508.324 1.062.324 1.643A4.38 4.38 0 018 12.374 4.38 4.38 0 013.625 8c0-.581.116-1.135.322-1.643H1.56v6.55c0 .846.687 1.534 1.533 1.534h9.816c.845 0 1.533-.688 1.533-1.533z"/></symbol><symbol viewBox="0 0 20 16" id="message-icon" xmlns="http://www.w3.org/2000/svg"><path d="M9.99 11.227zm0 0c.314.002.619-.159.747-.237l1.858-1.72 6.044 4.824-4.625-6.137L19.6 2.788v11.235a1.2 1.2 0 01-1.2 1.2H1.6a1.2 1.2 0 01-1.2-1.2V2.816l5.519 5.092L1.377 14.1 7.5 9.366l1.77 1.635c.356.266.731.226.72.226zm.773-.253c.048-.031.054-.04 0 0zm-.769-2.077L.4 2.023a1.2 1.2 0 011.2-1.2h16.8a1.2 1.2 0 011.2 1.2z"/></symbol></svg>